<?xml version="1.0" encoding="UTF-8" standalone="no"?>
<!-- Generator: Adobe Illustrator 25.2.1, SVG Export Plug-In . SVG Version: 6.00 Build 0)  -->

<svg
   version="1.1"
   x="0px"
   y="0px"
   viewBox="0 0 130 130"
   style="enable-background:new 0 0 130 130;"
   xml:space="preserve"
   id="svg92"
   sodipodi:docname="Equinor - AI knowledge 1.svg"
   inkscape:version="1.2.2 (b0a84865, 2022-12-01)"
   xmlns:inkscape="http://www.inkscape.org/namespaces/inkscape"
   xmlns:sodipodi="http://sodipodi.sourceforge.net/DTD/sodipodi-0.dtd"
   xmlns="http://www.w3.org/2000/svg"
   xmlns:svg="http://www.w3.org/2000/svg"
   xmlns:rdf="http://www.w3.org/1999/02/22-rdf-syntax-ns#"
   xmlns:dc="http://purl.org/dc/elements/1.1/"
   xmlns:x="adobe:ns:meta/"
   xmlns:xmpMM="http://ns.adobe.com/xap/1.0/mm/"
   xmlns:xmp="http://ns.adobe.com/xap/1.0/"
   xmlns:photoshop="http://ns.adobe.com/photoshop/1.0/"
   xmlns:exif="http://ns.adobe.com/exif/1.0/"
   xmlns:tiff="http://ns.adobe.com/tiff/1.0/"
   xmlns:crs="http://ns.adobe.com/camera-raw-settings/1.0/"
   xmlns:fwr="http://ns.fotoware.com/iptcxmp-reserved/1.0/"
   xmlns:skyview="http://ns.fotoware.com/skyview/1.0/"><defs
   id="defs96" /><sodipodi:namedview
   id="namedview94"
   pagecolor="#ffffff"
   bordercolor="#000000"
   borderopacity="0.25"
   inkscape:showpageshadow="2"
   inkscape:pageopacity="0.0"
   inkscape:pagecheckerboard="0"
   inkscape:deskcolor="#d1d1d1"
   showgrid="false"
   inkscape:zoom="7.9"
   inkscape:cx="44.303797"
   inkscape:cy="65.759494"
   inkscape:window-width="1914"
   inkscape:window-height="1205"
   inkscape:window-x="211"
   inkscape:window-y="0"
   inkscape:window-maximized="0"
   inkscape:current-layer="svg92" />
<title
   id="title80">equinor-ai-knowledge-01</title>
<desc
   id="desc82">SVG outlined icon for use in PowerPoint and design programs. Colour and scale can be adjusted once inserted in the PowerPoint slide.</desc>
<metadata
   id="metadata84"><?xpacket begin="﻿" id="W5M0MpCehiHzreSzNTczkc9d"?>
<x:xmpmeta
   x:xmptk="XMP Core 5.5.0">
 <rdf:RDF>
  <rdf:Description
   rdf:about=""
   xmpMM:DocumentID="xmp.did:48B39A9F-9935-4EF0-8493-88AED7BC4E12"
   xmpMM:OriginalDocumentID="xmp.did:48B39A9F-9935-4EF0-8493-88AED7BC4E12"
   xmpMM:InstanceID="xmp.iid:F1B4ED61-5F76-49BB-B83A-501190D71C1E"
   xmp:CreatorTool="FotoWare FotoStation"
   xmp:CreateDate="2022-12-05T15:51:58+01:00"
   xmp:MetadataDate="2023-04-27T12:18:41+01:00"
   photoshop:DateCreated="2021-05-10"
   photoshop:Source="Equinor"
   photoshop:ColorMode="3"
   photoshop:SidecarForExtension="svg"
   exif:PixelXDimension="100"
   exif:PixelYDimension="100"
   tiff:Orientation="1"
   tiff:XResolution="7200000/100000"
   tiff:YResolution="7200000/100000"
   tiff:ResolutionUnit="2"
   crs:HasCrop="False"
   fwr:UniqueId="6428C40F22D04A7E B680241D4AD07758"
   fwr:DocumentText=" "
   skyview:CustomField30="Icons">
   <xmp:XMPFileStamps>
    <rdf:Seq>
     <rdf:li>2023-04-27T12:18:41+01:00</rdf:li>
    </rdf:Seq>
   </xmp:XMPFileStamps>
   <fwr:UploadInfo
   fwr:UploadedBy="christer.strandberg@fotoware.com"
   fwr:UploadedByFullName="Christer Strandberg"
   fwr:UploadTime="2022-12-07T07:30:14.072427Z" />
   <dc:title>
    <rdf:Alt>
     <rdf:li
   xml:lang="x-default">AI knowledge 1</rdf:li>
    </rdf:Alt>
   </dc:title>
   <dc:rights>
    <rdf:Alt>
     <rdf:li
   xml:lang="x-default">Equinor</rdf:li>
    </rdf:Alt>
   </dc:rights>
   <dc:description>
    <rdf:Alt>
     <rdf:li
   xml:lang="x-default">SVG outlined icon for use in PowerPoint and design programs. Colour and scale can be adjusted once inserted in the PowerPoint slide.</rdf:li>
    </rdf:Alt>
   </dc:description>
   <dc:subject>
    <rdf:Bag>
     <rdf:li>artificial</rdf:li>
     <rdf:li>intelligence</rdf:li>
     <rdf:li>artificial intelligence</rdf:li>
     <rdf:li>kunstig intelligens</rdf:li>
     <rdf:li>ki</rdf:li>
    </rdf:Bag>
   </dc:subject>
  </rdf:Description>
 </rdf:RDF>
</x:xmpmeta>
                                                                                                    
                                                                                                    
                                                                                                    
                                                                                                    
                                                                                                    
                                                                                                    
                                                                                                    
                                                                                                    
                                                                                                    
                                                                                                    
                                                                                                    
                                                                                                    
                                                                                                    
                                                                                                    
                                                                                                    
                                                                                                    
                                                                                                    
                                                                                                    
                                                                                                    
                                                                 
<?xpacket end="w"?></metadata>
<style
   type="text/css"
   id="style86">
	.st0{fill:none;stroke:#FF1243;stroke-width:3;stroke-miterlimit:10;}
	.st1{fill:#FF1243;}
</style>
<g
   id="guides">
</g>
<g
   id="artwork"
   style="fill:#007079;fill-opacity:1">
	<path
   class="st1"
   d="M118.71,64.78l-1.02-19.84c2.03-1.27,3.39-3.52,3.39-6.09c0-3.96-3.22-7.19-7.19-7.19   c-0.96,0-1.88,0.19-2.72,0.54l-9.56-9.1c0.8-1.39,1.27-3,1.27-4.72c0-5.22-4.24-9.46-9.46-9.46c-4.7,0-8.61,3.46-9.33,7.96H41.33   c-0.69-3.24-3.58-5.69-7.03-5.69c-3.96,0-7.19,3.22-7.19,7.19c0,1.13,0.27,2.2,0.74,3.15l-10.8,11.62   c-1.21-0.93-2.72-1.48-4.36-1.48c-3.96,0-7.19,3.22-7.19,7.19c0,3.45,2.44,6.33,5.69,7.02v11.31c-2.66,1.05-4.55,3.65-4.55,6.68   c0,3.96,3.22,7.19,7.19,7.19c1.11,0,2.16-0.26,3.11-0.72l8.61,7.49c-0.45,0.94-0.71,1.99-0.71,3.1c0,3.96,3.22,7.18,7.19,7.18   c3.03,0,5.62-1.89,6.68-4.55h19.27c0.69,3.24,3.58,5.69,7.02,5.69c1.24,0,2.4-0.31,3.42-0.87l11.38,21.12   c-0.95,1.22-1.52,2.74-1.52,4.4c0,3.96,3.22,7.19,7.19,7.19s7.19-3.22,7.19-7.19c0-1.86-0.72-3.56-1.88-4.83l3.15-5.5   c0.92,0.3,1.9,0.47,2.92,0.47c5.22,0,9.46-4.24,9.46-9.46c0-2.32-0.84-4.44-2.23-6.09l9.71-10.4c1.04,0.59,2.24,0.93,3.52,0.93   c3.96,0,7.19-3.22,7.19-7.19C124.49,68.34,122,65.43,118.71,64.78z M115.71,64.82c-0.84,0.19-1.63,0.53-2.33,0.99L96.73,50.94   c1.02-1.51,1.61-3.32,1.61-5.27c0-0.1-0.01-0.19-0.01-0.28l9.23-3.17c1.21,2.27,3.6,3.82,6.34,3.82c0.29,0,0.57-0.02,0.85-0.05   L115.71,64.82z M96.84,85.1c-0.31,0-0.62,0.02-0.92,0.05l-4.69-30.33c1.27-0.33,2.44-0.91,3.45-1.69l16.59,14.81   c-0.72,1.12-1.15,2.45-1.15,3.88c0,1.6,0.53,3.07,1.41,4.26l-9.75,10.43C100.34,85.63,98.65,85.1,96.84,85.1z M79.42,45.67   c0,0.18,0.02,0.36,0.03,0.53l-20.96,1.9c-0.11-1.08-0.41-2.1-0.86-3.05L88.4,26.38c1.46,0.92,3.18,1.46,5.03,1.46   c2.41,0,4.61-0.92,6.29-2.41l8.94,8.52c-1.2,1.29-1.95,3.01-1.95,4.9c0,0.16,0.01,0.32,0.02,0.47l-8.98,3.09   c-1.33-3.61-4.8-6.2-8.87-6.2C83.66,36.21,79.42,40.45,79.42,45.67z M32.03,73.73c-1.77,0-3.39,0.64-4.64,1.71l-8.03-6.99   c1.04-1.25,1.67-2.85,1.67-4.59c0-0.46-0.05-0.92-0.13-1.36l20.06-8.62c0.66,1.12,1.54,2.09,2.59,2.85l-9.21,17.39   C33.61,73.87,32.83,73.73,32.03,73.73z M19.08,42.13l20.65,5.6c-0.06,0.44-0.11,0.89-0.11,1.35c0,0.69,0.08,1.36,0.22,2.01   l-20.13,8.65c-1.24-1.76-3.24-2.93-5.52-3.05V45.87C16.33,45.42,18.11,44.02,19.08,42.13z M34.3,25.57c0.6,0,1.18-0.08,1.74-0.22   l7.1,16.39c-1.04,0.85-1.9,1.92-2.51,3.13l-20.76-5.63c0.01-0.13,0.02-0.26,0.02-0.39c0-1.23-0.31-2.39-0.86-3.41l10.71-11.52   C30.97,24.95,32.56,25.57,34.3,25.57z M42.62,49.08c0-3.56,2.9-6.46,6.46-6.46c3.56,0,6.46,2.9,6.46,6.46   c0,3.56-2.9,6.46-6.46,6.46C45.52,55.54,42.62,52.64,42.62,49.08z M82.42,45.67c0-3.56,2.9-6.46,6.46-6.46   c3.56,0,6.46,2.9,6.46,6.46c0,3.56-2.9,6.46-6.46,6.46C85.32,52.13,82.42,49.23,82.42,45.67z M118.08,38.85   c0,2.31-1.88,4.19-4.19,4.19s-4.19-1.88-4.19-4.19s1.88-4.19,4.19-4.19S118.08,36.54,118.08,38.85z M93.43,11.92   c3.56,0,6.46,2.9,6.46,6.46c0,3.56-2.9,6.46-6.46,6.46c-3.56,0-6.46-2.9-6.46-6.46C86.97,14.82,89.86,11.92,93.43,11.92z    M41.33,19.88H84.1c0.26,1.65,0.95,3.16,1.96,4.41L55.93,42.58c-1.72-1.82-4.16-2.96-6.85-2.96c-1.17,0-2.29,0.22-3.33,0.62   l-7.02-16.21C40.03,23,40.97,21.55,41.33,19.88z M34.3,14.2c2.31,0,4.19,1.88,4.19,4.19c0,2.31-1.88,4.19-4.19,4.19   c-2.31,0-4.19-1.88-4.19-4.19C30.11,16.07,31.99,14.2,34.3,14.2z M8.51,38.85c0-2.31,1.88-4.19,4.19-4.19s4.19,1.88,4.19,4.19   S15,43.03,12.7,43.03S8.51,41.16,8.51,38.85z M9.65,63.86c0-2.31,1.88-4.19,4.19-4.19c2.31,0,4.19,1.88,4.19,4.19   c0,2.31-1.88,4.19-4.19,4.19C11.53,68.05,9.65,66.17,9.65,63.86z M32.03,85.1c-2.31,0-4.19-1.88-4.19-4.18s1.88-4.19,4.19-4.19   s4.19,1.88,4.19,4.19S34.33,85.1,32.03,85.1z M57.98,80.56H39.19c-0.1-1.93-0.96-3.66-2.28-4.89l9.3-17.57   c0.91,0.29,1.87,0.45,2.87,0.45c4.51,0,8.29-3.17,9.23-7.41l21.78-1.98c0.45,1.13,1.12,2.16,1.94,3.03L67.01,75.16   c-0.64-0.19-1.31-0.29-2.01-0.29C61.55,74.87,58.67,77.31,57.98,80.56z M60.81,82.06c0-2.31,1.88-4.19,4.19-4.19   s4.19,1.88,4.19,4.19s-1.88,4.19-4.19,4.19S60.81,84.36,60.81,82.06z M85.47,118.08c-2.31,0-4.19-1.88-4.19-4.19   s1.88-4.19,4.19-4.19c2.31,0,4.19,1.88,4.19,4.19S87.77,118.08,85.47,118.08z M88.32,107.3c-0.88-0.38-1.84-0.59-2.85-0.59   c-1.2,0-2.32,0.3-3.32,0.82L70.74,86.36c0.9-1.2,1.44-2.69,1.44-4.3c0-2.18-0.98-4.14-2.52-5.46l14.77-22.59   c1.15,0.61,2.43,0.99,3.8,1.08L93,85.92c-3.31,1.48-5.62,4.79-5.62,8.64c0,3.12,1.53,5.89,3.87,7.61L88.32,107.3z M96.84,101.02   c-3.56,0-6.46-2.9-6.46-6.46c0-3.56,2.9-6.46,6.46-6.46c3.56,0,6.46,2.9,6.46,6.46C103.3,98.13,100.4,101.02,96.84,101.02z    M117.3,76.01c-2.31,0-4.19-1.88-4.19-4.19s1.88-4.19,4.19-4.19s4.19,1.88,4.19,4.19S119.61,76.01,117.3,76.01z"
   id="path89"
   style="fill:#007079;fill-opacity:1" />
</g>
</svg>
