<?xml version="1.0" encoding="UTF-8" standalone="no"?><svg xmlns="http://www.w3.org/2000/svg" xmlns:xlink="http://www.w3.org/1999/xlink" contentScriptType="application/ecmascript" contentStyleType="text/css" height="717px" preserveAspectRatio="none" style="width:1090px;height:717px;" version="1.1" viewBox="0 0 1090 717" width="1090px" zoomAndPan="magnify"><defs><filter height="300%" id="f1whn0k1jatevo" width="300%" x="-1" y="-1"><feGaussianBlur result="blurOut" stdDeviation="2.0"/><feColorMatrix in="blurOut" result="blurOut2" type="matrix" values="0 0 0 0 0 0 0 0 0 0 0 0 0 0 0 0 0 0 .4 0"/><feOffset dx="4.0" dy="4.0" in="blurOut2" result="blurOut3"/><feBlend in="SourceGraphic" in2="blurOut3" mode="normal"/></filter></defs><g><!--MD5=[d9427b671d7d049aff2d6f2fe36a13b3]
class Field--><rect fill="#FFFFFF" filter="url(#f1whn0k1jatevo)" height="48" id="Field" style="stroke:#000000;stroke-width:1.5;" width="61" x="787.5" y="7"/><ellipse cx="802.5" cy="23" fill="#ADD1B2" rx="11" ry="11" style="stroke:#000000;stroke-width:1.0;"/><path d="M804.8438,18.6719 C803.9063,18.2344 803.3125,18.0938 802.4375,18.0938 C799.8125,18.0938 797.8125,20.1719 797.8125,22.8906 L797.8125,24.0156 C797.8125,26.5938 799.9219,28.4844 802.8125,28.4844 C804.0313,28.4844 805.1875,28.1875 805.9375,27.6406 C806.5156,27.2344 806.8438,26.7813 806.8438,26.3906 C806.8438,25.9375 806.4531,25.5469 805.9844,25.5469 C805.7656,25.5469 805.5625,25.625 805.375,25.8125 C804.9219,26.2969 804.9219,26.2969 804.7344,26.3906 C804.3125,26.6563 803.625,26.7813 802.8594,26.7813 C800.8125,26.7813 799.5156,25.6875 799.5156,23.9844 L799.5156,22.8906 C799.5156,21.1094 800.7656,19.7969 802.5,19.7969 C803.0781,19.7969 803.6875,19.9531 804.1563,20.2031 C804.6406,20.4844 804.8125,20.7031 804.9063,21.1094 C804.9688,21.5156 805,21.6406 805.1406,21.7656 C805.2813,21.9063 805.5156,22.0156 805.7344,22.0156 C806,22.0156 806.2656,21.875 806.4375,21.6563 C806.5469,21.5 806.5781,21.3125 806.5781,20.8906 L806.5781,19.4688 C806.5781,19.0313 806.5625,18.9063 806.4688,18.75 C806.3125,18.4844 806.0313,18.3438 805.7344,18.3438 C805.4375,18.3438 805.2344,18.4375 805.0156,18.75 L804.8438,18.6719 Z " fill="#000000"/><text fill="#000000" font-family="sans-serif" font-size="12" lengthAdjust="spacingAndGlyphs" textLength="29" x="816.5" y="27.1543">Field</text><line style="stroke:#000000;stroke-width:1.5;" x1="788.5" x2="847.5" y1="39" y2="39"/><line style="stroke:#000000;stroke-width:1.5;" x1="788.5" x2="847.5" y1="47" y2="47"/><!--MD5=[9db9855fe2f6418ac08b65fed6ee6fe8]
class Well--><rect fill="#FFFFFF" filter="url(#f1whn0k1jatevo)" height="48" id="Well" style="stroke:#000000;stroke-width:1.5;" width="58" x="789" y="115"/><ellipse cx="804" cy="131" fill="#ADD1B2" rx="11" ry="11" style="stroke:#000000;stroke-width:1.0;"/><path d="M806.3438,126.6719 C805.4063,126.2344 804.8125,126.0938 803.9375,126.0938 C801.3125,126.0938 799.3125,128.1719 799.3125,130.8906 L799.3125,132.0156 C799.3125,134.5938 801.4219,136.4844 804.3125,136.4844 C805.5313,136.4844 806.6875,136.1875 807.4375,135.6406 C808.0156,135.2344 808.3438,134.7813 808.3438,134.3906 C808.3438,133.9375 807.9531,133.5469 807.4844,133.5469 C807.2656,133.5469 807.0625,133.625 806.875,133.8125 C806.4219,134.2969 806.4219,134.2969 806.2344,134.3906 C805.8125,134.6563 805.125,134.7813 804.3594,134.7813 C802.3125,134.7813 801.0156,133.6875 801.0156,131.9844 L801.0156,130.8906 C801.0156,129.1094 802.2656,127.7969 804,127.7969 C804.5781,127.7969 805.1875,127.9531 805.6563,128.2031 C806.1406,128.4844 806.3125,128.7031 806.4063,129.1094 C806.4688,129.5156 806.5,129.6406 806.6406,129.7656 C806.7813,129.9063 807.0156,130.0156 807.2344,130.0156 C807.5,130.0156 807.7656,129.875 807.9375,129.6563 C808.0469,129.5 808.0781,129.3125 808.0781,128.8906 L808.0781,127.4688 C808.0781,127.0313 808.0625,126.9063 807.9688,126.75 C807.8125,126.4844 807.5313,126.3438 807.2344,126.3438 C806.9375,126.3438 806.7344,126.4375 806.5156,126.75 L806.3438,126.6719 Z " fill="#000000"/><text fill="#000000" font-family="sans-serif" font-size="12" lengthAdjust="spacingAndGlyphs" textLength="26" x="818" y="135.1543">Well</text><line style="stroke:#000000;stroke-width:1.5;" x1="790" x2="846" y1="147" y2="147"/><line style="stroke:#000000;stroke-width:1.5;" x1="790" x2="846" y1="155" y2="155"/><!--MD5=[1b063a3fc0ef10b8073f97a016233fdf]
class Wellbore--><rect fill="#FFFFFF" filter="url(#f1whn0k1jatevo)" height="48" id="Wellbore" style="stroke:#000000;stroke-width:1.5;" width="87" x="806.5" y="223"/><ellipse cx="821.5" cy="239" fill="#ADD1B2" rx="11" ry="11" style="stroke:#000000;stroke-width:1.0;"/><path d="M823.8438,234.6719 C822.9063,234.2344 822.3125,234.0938 821.4375,234.0938 C818.8125,234.0938 816.8125,236.1719 816.8125,238.8906 L816.8125,240.0156 C816.8125,242.5938 818.9219,244.4844 821.8125,244.4844 C823.0313,244.4844 824.1875,244.1875 824.9375,243.6406 C825.5156,243.2344 825.8438,242.7813 825.8438,242.3906 C825.8438,241.9375 825.4531,241.5469 824.9844,241.5469 C824.7656,241.5469 824.5625,241.625 824.375,241.8125 C823.9219,242.2969 823.9219,242.2969 823.7344,242.3906 C823.3125,242.6563 822.625,242.7813 821.8594,242.7813 C819.8125,242.7813 818.5156,241.6875 818.5156,239.9844 L818.5156,238.8906 C818.5156,237.1094 819.7656,235.7969 821.5,235.7969 C822.0781,235.7969 822.6875,235.9531 823.1563,236.2031 C823.6406,236.4844 823.8125,236.7031 823.9063,237.1094 C823.9688,237.5156 824,237.6406 824.1406,237.7656 C824.2813,237.9063 824.5156,238.0156 824.7344,238.0156 C825,238.0156 825.2656,237.875 825.4375,237.6563 C825.5469,237.5 825.5781,237.3125 825.5781,236.8906 L825.5781,235.4688 C825.5781,235.0313 825.5625,234.9063 825.4688,234.75 C825.3125,234.4844 825.0313,234.3438 824.7344,234.3438 C824.4375,234.3438 824.2344,234.4375 824.0156,234.75 L823.8438,234.6719 Z " fill="#000000"/><text fill="#000000" font-family="sans-serif" font-size="12" lengthAdjust="spacingAndGlyphs" textLength="55" x="835.5" y="243.1543">Wellbore</text><line style="stroke:#000000;stroke-width:1.5;" x1="807.5" x2="892.5" y1="255" y2="255"/><line style="stroke:#000000;stroke-width:1.5;" x1="807.5" x2="892.5" y1="263" y2="263"/><!--MD5=[79d378210367c0c6ec62ef762ddfbd1b]
class Project--><rect fill="#FFFFFF" filter="url(#f1whn0k1jatevo)" height="48" id="Project" style="stroke:#000000;stroke-width:1.5;" width="73" x="631.5" y="7"/><ellipse cx="646.5" cy="23" fill="#ADD1B2" rx="11" ry="11" style="stroke:#000000;stroke-width:1.0;"/><path d="M648.8438,18.6719 C647.9063,18.2344 647.3125,18.0938 646.4375,18.0938 C643.8125,18.0938 641.8125,20.1719 641.8125,22.8906 L641.8125,24.0156 C641.8125,26.5938 643.9219,28.4844 646.8125,28.4844 C648.0313,28.4844 649.1875,28.1875 649.9375,27.6406 C650.5156,27.2344 650.8438,26.7813 650.8438,26.3906 C650.8438,25.9375 650.4531,25.5469 649.9844,25.5469 C649.7656,25.5469 649.5625,25.625 649.375,25.8125 C648.9219,26.2969 648.9219,26.2969 648.7344,26.3906 C648.3125,26.6563 647.625,26.7813 646.8594,26.7813 C644.8125,26.7813 643.5156,25.6875 643.5156,23.9844 L643.5156,22.8906 C643.5156,21.1094 644.7656,19.7969 646.5,19.7969 C647.0781,19.7969 647.6875,19.9531 648.1563,20.2031 C648.6406,20.4844 648.8125,20.7031 648.9063,21.1094 C648.9688,21.5156 649,21.6406 649.1406,21.7656 C649.2813,21.9063 649.5156,22.0156 649.7344,22.0156 C650,22.0156 650.2656,21.875 650.4375,21.6563 C650.5469,21.5 650.5781,21.3125 650.5781,20.8906 L650.5781,19.4688 C650.5781,19.0313 650.5625,18.9063 650.4688,18.75 C650.3125,18.4844 650.0313,18.3438 649.7344,18.3438 C649.4375,18.3438 649.2344,18.4375 649.0156,18.75 L648.8438,18.6719 Z " fill="#000000"/><text fill="#000000" font-family="sans-serif" font-size="12" lengthAdjust="spacingAndGlyphs" textLength="41" x="660.5" y="27.1543">Project</text><line style="stroke:#000000;stroke-width:1.5;" x1="632.5" x2="703.5" y1="39" y2="39"/><line style="stroke:#000000;stroke-width:1.5;" x1="632.5" x2="703.5" y1="47" y2="47"/><!--MD5=[15c9bf2f00e45828453f6d373cda0eb2]
class ProjectPhase--><rect fill="#FFFFFF" filter="url(#f1whn0k1jatevo)" height="48" id="ProjectPhase" style="stroke:#000000;stroke-width:1.5;" width="108" x="614" y="115"/><ellipse cx="629" cy="131" fill="#ADD1B2" rx="11" ry="11" style="stroke:#000000;stroke-width:1.0;"/><path d="M631.3438,126.6719 C630.4063,126.2344 629.8125,126.0938 628.9375,126.0938 C626.3125,126.0938 624.3125,128.1719 624.3125,130.8906 L624.3125,132.0156 C624.3125,134.5938 626.4219,136.4844 629.3125,136.4844 C630.5313,136.4844 631.6875,136.1875 632.4375,135.6406 C633.0156,135.2344 633.3438,134.7813 633.3438,134.3906 C633.3438,133.9375 632.9531,133.5469 632.4844,133.5469 C632.2656,133.5469 632.0625,133.625 631.875,133.8125 C631.4219,134.2969 631.4219,134.2969 631.2344,134.3906 C630.8125,134.6563 630.125,134.7813 629.3594,134.7813 C627.3125,134.7813 626.0156,133.6875 626.0156,131.9844 L626.0156,130.8906 C626.0156,129.1094 627.2656,127.7969 629,127.7969 C629.5781,127.7969 630.1875,127.9531 630.6563,128.2031 C631.1406,128.4844 631.3125,128.7031 631.4063,129.1094 C631.4688,129.5156 631.5,129.6406 631.6406,129.7656 C631.7813,129.9063 632.0156,130.0156 632.2344,130.0156 C632.5,130.0156 632.7656,129.875 632.9375,129.6563 C633.0469,129.5 633.0781,129.3125 633.0781,128.8906 L633.0781,127.4688 C633.0781,127.0313 633.0625,126.9063 632.9688,126.75 C632.8125,126.4844 632.5313,126.3438 632.2344,126.3438 C631.9375,126.3438 631.7344,126.4375 631.5156,126.75 L631.3438,126.6719 Z " fill="#000000"/><text fill="#000000" font-family="sans-serif" font-size="12" lengthAdjust="spacingAndGlyphs" textLength="76" x="643" y="135.1543">ProjectPhase</text><line style="stroke:#000000;stroke-width:1.5;" x1="615" x2="721" y1="147" y2="147"/><line style="stroke:#000000;stroke-width:1.5;" x1="615" x2="721" y1="155" y2="155"/><!--MD5=[09a53695e98d4f26e7a054522080af08]
class Section--><rect fill="#FFFFFF" filter="url(#f1whn0k1jatevo)" height="48" id="Section" style="stroke:#000000;stroke-width:1.5;" width="77" x="713.5" y="331"/><ellipse cx="728.5" cy="347" fill="#ADD1B2" rx="11" ry="11" style="stroke:#000000;stroke-width:1.0;"/><path d="M730.8438,342.6719 C729.9063,342.2344 729.3125,342.0938 728.4375,342.0938 C725.8125,342.0938 723.8125,344.1719 723.8125,346.8906 L723.8125,348.0156 C723.8125,350.5938 725.9219,352.4844 728.8125,352.4844 C730.0313,352.4844 731.1875,352.1875 731.9375,351.6406 C732.5156,351.2344 732.8438,350.7813 732.8438,350.3906 C732.8438,349.9375 732.4531,349.5469 731.9844,349.5469 C731.7656,349.5469 731.5625,349.625 731.375,349.8125 C730.9219,350.2969 730.9219,350.2969 730.7344,350.3906 C730.3125,350.6563 729.625,350.7813 728.8594,350.7813 C726.8125,350.7813 725.5156,349.6875 725.5156,347.9844 L725.5156,346.8906 C725.5156,345.1094 726.7656,343.7969 728.5,343.7969 C729.0781,343.7969 729.6875,343.9531 730.1563,344.2031 C730.6406,344.4844 730.8125,344.7031 730.9063,345.1094 C730.9688,345.5156 731,345.6406 731.1406,345.7656 C731.2813,345.9063 731.5156,346.0156 731.7344,346.0156 C732,346.0156 732.2656,345.875 732.4375,345.6563 C732.5469,345.5 732.5781,345.3125 732.5781,344.8906 L732.5781,343.4688 C732.5781,343.0313 732.5625,342.9063 732.4688,342.75 C732.3125,342.4844 732.0313,342.3438 731.7344,342.3438 C731.4375,342.3438 731.2344,342.4375 731.0156,342.75 L730.8438,342.6719 Z " fill="#000000"/><text fill="#000000" font-family="sans-serif" font-size="12" lengthAdjust="spacingAndGlyphs" textLength="45" x="742.5" y="351.1543">Section</text><line style="stroke:#000000;stroke-width:1.5;" x1="714.5" x2="789.5" y1="363" y2="363"/><line style="stroke:#000000;stroke-width:1.5;" x1="714.5" x2="789.5" y1="371" y2="371"/><!--MD5=[3ef32b06f6270f454efdaa3ef34b677c]
class WellDesign--><rect fill="#FFFFFF" filter="url(#f1whn0k1jatevo)" height="48" id="WellDesign" style="stroke:#000000;stroke-width:1.5;" width="100" x="461" y="223"/><ellipse cx="476" cy="239" fill="#ADD1B2" rx="11" ry="11" style="stroke:#000000;stroke-width:1.0;"/><path d="M478.3438,234.6719 C477.4063,234.2344 476.8125,234.0938 475.9375,234.0938 C473.3125,234.0938 471.3125,236.1719 471.3125,238.8906 L471.3125,240.0156 C471.3125,242.5938 473.4219,244.4844 476.3125,244.4844 C477.5313,244.4844 478.6875,244.1875 479.4375,243.6406 C480.0156,243.2344 480.3438,242.7813 480.3438,242.3906 C480.3438,241.9375 479.9531,241.5469 479.4844,241.5469 C479.2656,241.5469 479.0625,241.625 478.875,241.8125 C478.4219,242.2969 478.4219,242.2969 478.2344,242.3906 C477.8125,242.6563 477.125,242.7813 476.3594,242.7813 C474.3125,242.7813 473.0156,241.6875 473.0156,239.9844 L473.0156,238.8906 C473.0156,237.1094 474.2656,235.7969 476,235.7969 C476.5781,235.7969 477.1875,235.9531 477.6563,236.2031 C478.1406,236.4844 478.3125,236.7031 478.4063,237.1094 C478.4688,237.5156 478.5,237.6406 478.6406,237.7656 C478.7813,237.9063 479.0156,238.0156 479.2344,238.0156 C479.5,238.0156 479.7656,237.875 479.9375,237.6563 C480.0469,237.5 480.0781,237.3125 480.0781,236.8906 L480.0781,235.4688 C480.0781,235.0313 480.0625,234.9063 479.9688,234.75 C479.8125,234.4844 479.5313,234.3438 479.2344,234.3438 C478.9375,234.3438 478.7344,234.4375 478.5156,234.75 L478.3438,234.6719 Z " fill="#000000"/><text fill="#000000" font-family="sans-serif" font-size="12" lengthAdjust="spacingAndGlyphs" textLength="68" x="490" y="243.1543">WellDesign</text><line style="stroke:#000000;stroke-width:1.5;" x1="462" x2="560" y1="255" y2="255"/><line style="stroke:#000000;stroke-width:1.5;" x1="462" x2="560" y1="263" y2="263"/><!--MD5=[7ec44334b204c7c899486b5b457dd2f7]
class WellHoleSize--><rect fill="#FFFFFF" filter="url(#f1whn0k1jatevo)" height="48" id="WellHoleSize" style="stroke:#000000;stroke-width:1.5;" width="112" x="328" y="331"/><ellipse cx="343" cy="347" fill="#ADD1B2" rx="11" ry="11" style="stroke:#000000;stroke-width:1.0;"/><path d="M345.3438,342.6719 C344.4063,342.2344 343.8125,342.0938 342.9375,342.0938 C340.3125,342.0938 338.3125,344.1719 338.3125,346.8906 L338.3125,348.0156 C338.3125,350.5938 340.4219,352.4844 343.3125,352.4844 C344.5313,352.4844 345.6875,352.1875 346.4375,351.6406 C347.0156,351.2344 347.3438,350.7813 347.3438,350.3906 C347.3438,349.9375 346.9531,349.5469 346.4844,349.5469 C346.2656,349.5469 346.0625,349.625 345.875,349.8125 C345.4219,350.2969 345.4219,350.2969 345.2344,350.3906 C344.8125,350.6563 344.125,350.7813 343.3594,350.7813 C341.3125,350.7813 340.0156,349.6875 340.0156,347.9844 L340.0156,346.8906 C340.0156,345.1094 341.2656,343.7969 343,343.7969 C343.5781,343.7969 344.1875,343.9531 344.6563,344.2031 C345.1406,344.4844 345.3125,344.7031 345.4063,345.1094 C345.4688,345.5156 345.5,345.6406 345.6406,345.7656 C345.7813,345.9063 346.0156,346.0156 346.2344,346.0156 C346.5,346.0156 346.7656,345.875 346.9375,345.6563 C347.0469,345.5 347.0781,345.3125 347.0781,344.8906 L347.0781,343.4688 C347.0781,343.0313 347.0625,342.9063 346.9688,342.75 C346.8125,342.4844 346.5313,342.3438 346.2344,342.3438 C345.9375,342.3438 345.7344,342.4375 345.5156,342.75 L345.3438,342.6719 Z " fill="#000000"/><text fill="#000000" font-family="sans-serif" font-size="12" lengthAdjust="spacingAndGlyphs" textLength="80" x="357" y="351.1543">WellHoleSize</text><line style="stroke:#000000;stroke-width:1.5;" x1="329" x2="439" y1="363" y2="363"/><line style="stroke:#000000;stroke-width:1.5;" x1="329" x2="439" y1="371" y2="371"/><!--MD5=[c9af800f1da99f948c7d229b03e822e2]
class Casing--><rect fill="#FFFFFF" filter="url(#f1whn0k1jatevo)" height="48" id="Casing" style="stroke:#000000;stroke-width:1.5;" width="72" x="475" y="331"/><ellipse cx="490" cy="347" fill="#ADD1B2" rx="11" ry="11" style="stroke:#000000;stroke-width:1.0;"/><path d="M492.3438,342.6719 C491.4063,342.2344 490.8125,342.0938 489.9375,342.0938 C487.3125,342.0938 485.3125,344.1719 485.3125,346.8906 L485.3125,348.0156 C485.3125,350.5938 487.4219,352.4844 490.3125,352.4844 C491.5313,352.4844 492.6875,352.1875 493.4375,351.6406 C494.0156,351.2344 494.3438,350.7813 494.3438,350.3906 C494.3438,349.9375 493.9531,349.5469 493.4844,349.5469 C493.2656,349.5469 493.0625,349.625 492.875,349.8125 C492.4219,350.2969 492.4219,350.2969 492.2344,350.3906 C491.8125,350.6563 491.125,350.7813 490.3594,350.7813 C488.3125,350.7813 487.0156,349.6875 487.0156,347.9844 L487.0156,346.8906 C487.0156,345.1094 488.2656,343.7969 490,343.7969 C490.5781,343.7969 491.1875,343.9531 491.6563,344.2031 C492.1406,344.4844 492.3125,344.7031 492.4063,345.1094 C492.4688,345.5156 492.5,345.6406 492.6406,345.7656 C492.7813,345.9063 493.0156,346.0156 493.2344,346.0156 C493.5,346.0156 493.7656,345.875 493.9375,345.6563 C494.0469,345.5 494.0781,345.3125 494.0781,344.8906 L494.0781,343.4688 C494.0781,343.0313 494.0625,342.9063 493.9688,342.75 C493.8125,342.4844 493.5313,342.3438 493.2344,342.3438 C492.9375,342.3438 492.7344,342.4375 492.5156,342.75 L492.3438,342.6719 Z " fill="#000000"/><text fill="#000000" font-family="sans-serif" font-size="12" lengthAdjust="spacingAndGlyphs" textLength="40" x="504" y="351.1543">Casing</text><line style="stroke:#000000;stroke-width:1.5;" x1="476" x2="546" y1="363" y2="363"/><line style="stroke:#000000;stroke-width:1.5;" x1="476" x2="546" y1="371" y2="371"/><!--MD5=[14023e8072758fcec6aff89c27598207]
class Cementing--><rect fill="#FFFFFF" filter="url(#f1whn0k1jatevo)" height="48" id="Cementing" style="stroke:#000000;stroke-width:1.5;" width="96" x="582" y="331"/><ellipse cx="597" cy="347" fill="#ADD1B2" rx="11" ry="11" style="stroke:#000000;stroke-width:1.0;"/><path d="M599.3438,342.6719 C598.4063,342.2344 597.8125,342.0938 596.9375,342.0938 C594.3125,342.0938 592.3125,344.1719 592.3125,346.8906 L592.3125,348.0156 C592.3125,350.5938 594.4219,352.4844 597.3125,352.4844 C598.5313,352.4844 599.6875,352.1875 600.4375,351.6406 C601.0156,351.2344 601.3438,350.7813 601.3438,350.3906 C601.3438,349.9375 600.9531,349.5469 600.4844,349.5469 C600.2656,349.5469 600.0625,349.625 599.875,349.8125 C599.4219,350.2969 599.4219,350.2969 599.2344,350.3906 C598.8125,350.6563 598.125,350.7813 597.3594,350.7813 C595.3125,350.7813 594.0156,349.6875 594.0156,347.9844 L594.0156,346.8906 C594.0156,345.1094 595.2656,343.7969 597,343.7969 C597.5781,343.7969 598.1875,343.9531 598.6563,344.2031 C599.1406,344.4844 599.3125,344.7031 599.4063,345.1094 C599.4688,345.5156 599.5,345.6406 599.6406,345.7656 C599.7813,345.9063 600.0156,346.0156 600.2344,346.0156 C600.5,346.0156 600.7656,345.875 600.9375,345.6563 C601.0469,345.5 601.0781,345.3125 601.0781,344.8906 L601.0781,343.4688 C601.0781,343.0313 601.0625,342.9063 600.9688,342.75 C600.8125,342.4844 600.5313,342.3438 600.2344,342.3438 C599.9375,342.3438 599.7344,342.4375 599.5156,342.75 L599.3438,342.6719 Z " fill="#000000"/><text fill="#000000" font-family="sans-serif" font-size="12" lengthAdjust="spacingAndGlyphs" textLength="64" x="611" y="351.1543">Cementing</text><line style="stroke:#000000;stroke-width:1.5;" x1="583" x2="677" y1="363" y2="363"/><line style="stroke:#000000;stroke-width:1.5;" x1="583" x2="677" y1="371" y2="371"/><!--MD5=[b34797a66dc35cbf1d65f7e3ca75530e]
class Task--><rect fill="#FFFFFF" filter="url(#f1whn0k1jatevo)" height="48" id="Task" style="stroke:#000000;stroke-width:1.5;" width="60" x="820" y="439"/><ellipse cx="835" cy="455" fill="#ADD1B2" rx="11" ry="11" style="stroke:#000000;stroke-width:1.0;"/><path d="M837.3438,450.6719 C836.4063,450.2344 835.8125,450.0938 834.9375,450.0938 C832.3125,450.0938 830.3125,452.1719 830.3125,454.8906 L830.3125,456.0156 C830.3125,458.5938 832.4219,460.4844 835.3125,460.4844 C836.5313,460.4844 837.6875,460.1875 838.4375,459.6406 C839.0156,459.2344 839.3438,458.7813 839.3438,458.3906 C839.3438,457.9375 838.9531,457.5469 838.4844,457.5469 C838.2656,457.5469 838.0625,457.625 837.875,457.8125 C837.4219,458.2969 837.4219,458.2969 837.2344,458.3906 C836.8125,458.6563 836.125,458.7813 835.3594,458.7813 C833.3125,458.7813 832.0156,457.6875 832.0156,455.9844 L832.0156,454.8906 C832.0156,453.1094 833.2656,451.7969 835,451.7969 C835.5781,451.7969 836.1875,451.9531 836.6563,452.2031 C837.1406,452.4844 837.3125,452.7031 837.4063,453.1094 C837.4688,453.5156 837.5,453.6406 837.6406,453.7656 C837.7813,453.9063 838.0156,454.0156 838.2344,454.0156 C838.5,454.0156 838.7656,453.875 838.9375,453.6563 C839.0469,453.5 839.0781,453.3125 839.0781,452.8906 L839.0781,451.4688 C839.0781,451.0313 839.0625,450.9063 838.9688,450.75 C838.8125,450.4844 838.5313,450.3438 838.2344,450.3438 C837.9375,450.3438 837.7344,450.4375 837.5156,450.75 L837.3438,450.6719 Z " fill="#000000"/><text fill="#000000" font-family="sans-serif" font-size="12" lengthAdjust="spacingAndGlyphs" textLength="28" x="849" y="459.1543">Task</text><line style="stroke:#000000;stroke-width:1.5;" x1="821" x2="879" y1="471" y2="471"/><line style="stroke:#000000;stroke-width:1.5;" x1="821" x2="879" y1="479" y2="479"/><!--MD5=[5e5c1b126e34db6f7d534482120296fb]
class Rig--><rect fill="#FFFFFF" filter="url(#f1whn0k1jatevo)" height="48" id="Rig" style="stroke:#000000;stroke-width:1.5;" width="50" x="721" y="223"/><ellipse cx="736" cy="239" fill="#ADD1B2" rx="11" ry="11" style="stroke:#000000;stroke-width:1.0;"/><path d="M738.3438,234.6719 C737.4063,234.2344 736.8125,234.0938 735.9375,234.0938 C733.3125,234.0938 731.3125,236.1719 731.3125,238.8906 L731.3125,240.0156 C731.3125,242.5938 733.4219,244.4844 736.3125,244.4844 C737.5313,244.4844 738.6875,244.1875 739.4375,243.6406 C740.0156,243.2344 740.3438,242.7813 740.3438,242.3906 C740.3438,241.9375 739.9531,241.5469 739.4844,241.5469 C739.2656,241.5469 739.0625,241.625 738.875,241.8125 C738.4219,242.2969 738.4219,242.2969 738.2344,242.3906 C737.8125,242.6563 737.125,242.7813 736.3594,242.7813 C734.3125,242.7813 733.0156,241.6875 733.0156,239.9844 L733.0156,238.8906 C733.0156,237.1094 734.2656,235.7969 736,235.7969 C736.5781,235.7969 737.1875,235.9531 737.6563,236.2031 C738.1406,236.4844 738.3125,236.7031 738.4063,237.1094 C738.4688,237.5156 738.5,237.6406 738.6406,237.7656 C738.7813,237.9063 739.0156,238.0156 739.2344,238.0156 C739.5,238.0156 739.7656,237.875 739.9375,237.6563 C740.0469,237.5 740.0781,237.3125 740.0781,236.8906 L740.0781,235.4688 C740.0781,235.0313 740.0625,234.9063 739.9688,234.75 C739.8125,234.4844 739.5313,234.3438 739.2344,234.3438 C738.9375,234.3438 738.7344,234.4375 738.5156,234.75 L738.3438,234.6719 Z " fill="#000000"/><text fill="#000000" font-family="sans-serif" font-size="12" lengthAdjust="spacingAndGlyphs" textLength="18" x="750" y="243.1543">Rig</text><line style="stroke:#000000;stroke-width:1.5;" x1="722" x2="770" y1="255" y2="255"/><line style="stroke:#000000;stroke-width:1.5;" x1="722" x2="770" y1="263" y2="263"/><!--MD5=[7b6e0f6d0f277614f494ba19dd4ee3e3]
class Risk--><rect fill="#FFFFFF" filter="url(#f1whn0k1jatevo)" height="48" id="Risk" style="stroke:#000000;stroke-width:1.5;" width="56" x="716" y="547"/><ellipse cx="731" cy="563" fill="#ADD1B2" rx="11" ry="11" style="stroke:#000000;stroke-width:1.0;"/><path d="M733.3438,558.6719 C732.4063,558.2344 731.8125,558.0938 730.9375,558.0938 C728.3125,558.0938 726.3125,560.1719 726.3125,562.8906 L726.3125,564.0156 C726.3125,566.5938 728.4219,568.4844 731.3125,568.4844 C732.5313,568.4844 733.6875,568.1875 734.4375,567.6406 C735.0156,567.2344 735.3438,566.7813 735.3438,566.3906 C735.3438,565.9375 734.9531,565.5469 734.4844,565.5469 C734.2656,565.5469 734.0625,565.625 733.875,565.8125 C733.4219,566.2969 733.4219,566.2969 733.2344,566.3906 C732.8125,566.6563 732.125,566.7813 731.3594,566.7813 C729.3125,566.7813 728.0156,565.6875 728.0156,563.9844 L728.0156,562.8906 C728.0156,561.1094 729.2656,559.7969 731,559.7969 C731.5781,559.7969 732.1875,559.9531 732.6563,560.2031 C733.1406,560.4844 733.3125,560.7031 733.4063,561.1094 C733.4688,561.5156 733.5,561.6406 733.6406,561.7656 C733.7813,561.9063 734.0156,562.0156 734.2344,562.0156 C734.5,562.0156 734.7656,561.875 734.9375,561.6563 C735.0469,561.5 735.0781,561.3125 735.0781,560.8906 L735.0781,559.4688 C735.0781,559.0313 735.0625,558.9063 734.9688,558.75 C734.8125,558.4844 734.5313,558.3438 734.2344,558.3438 C733.9375,558.3438 733.7344,558.4375 733.5156,558.75 L733.3438,558.6719 Z " fill="#000000"/><text fill="#000000" font-family="sans-serif" font-size="12" lengthAdjust="spacingAndGlyphs" textLength="24" x="745" y="567.1543">Risk</text><line style="stroke:#000000;stroke-width:1.5;" x1="717" x2="771" y1="579" y2="579"/><line style="stroke:#000000;stroke-width:1.5;" x1="717" x2="771" y1="587" y2="587"/><!--MD5=[cca5d97aaf46870920fae66c9bd85cdd]
class Operation--><rect fill="#FFFFFF" filter="url(#f1whn0k1jatevo)" height="48" id="Operation" style="stroke:#000000;stroke-width:1.5;" width="92" x="807" y="547"/><ellipse cx="822" cy="563" fill="#ADD1B2" rx="11" ry="11" style="stroke:#000000;stroke-width:1.0;"/><path d="M824.3438,558.6719 C823.4063,558.2344 822.8125,558.0938 821.9375,558.0938 C819.3125,558.0938 817.3125,560.1719 817.3125,562.8906 L817.3125,564.0156 C817.3125,566.5938 819.4219,568.4844 822.3125,568.4844 C823.5313,568.4844 824.6875,568.1875 825.4375,567.6406 C826.0156,567.2344 826.3438,566.7813 826.3438,566.3906 C826.3438,565.9375 825.9531,565.5469 825.4844,565.5469 C825.2656,565.5469 825.0625,565.625 824.875,565.8125 C824.4219,566.2969 824.4219,566.2969 824.2344,566.3906 C823.8125,566.6563 823.125,566.7813 822.3594,566.7813 C820.3125,566.7813 819.0156,565.6875 819.0156,563.9844 L819.0156,562.8906 C819.0156,561.1094 820.2656,559.7969 822,559.7969 C822.5781,559.7969 823.1875,559.9531 823.6563,560.2031 C824.1406,560.4844 824.3125,560.7031 824.4063,561.1094 C824.4688,561.5156 824.5,561.6406 824.6406,561.7656 C824.7813,561.9063 825.0156,562.0156 825.2344,562.0156 C825.5,562.0156 825.7656,561.875 825.9375,561.6563 C826.0469,561.5 826.0781,561.3125 826.0781,560.8906 L826.0781,559.4688 C826.0781,559.0313 826.0625,558.9063 825.9688,558.75 C825.8125,558.4844 825.5313,558.3438 825.2344,558.3438 C824.9375,558.3438 824.7344,558.4375 824.5156,558.75 L824.3438,558.6719 Z " fill="#000000"/><text fill="#000000" font-family="sans-serif" font-size="12" lengthAdjust="spacingAndGlyphs" textLength="60" x="836" y="567.1543">Operation</text><line style="stroke:#000000;stroke-width:1.5;" x1="808" x2="898" y1="579" y2="579"/><line style="stroke:#000000;stroke-width:1.5;" x1="808" x2="898" y1="587" y2="587"/><!--MD5=[8c2f4329bae024304d629f7fadea7029]
class Run--><rect fill="#FFFFFF" filter="url(#f1whn0k1jatevo)" height="48" id="Run" style="stroke:#000000;stroke-width:1.5;" width="53" x="1023.5" y="655"/><ellipse cx="1038.5" cy="671" fill="#ADD1B2" rx="11" ry="11" style="stroke:#000000;stroke-width:1.0;"/><path d="M1040.8438,666.6719 C1039.9063,666.2344 1039.3125,666.0938 1038.4375,666.0938 C1035.8125,666.0938 1033.8125,668.1719 1033.8125,670.8906 L1033.8125,672.0156 C1033.8125,674.5938 1035.9219,676.4844 1038.8125,676.4844 C1040.0313,676.4844 1041.1875,676.1875 1041.9375,675.6406 C1042.5156,675.2344 1042.8438,674.7813 1042.8438,674.3906 C1042.8438,673.9375 1042.4531,673.5469 1041.9844,673.5469 C1041.7656,673.5469 1041.5625,673.625 1041.375,673.8125 C1040.9219,674.2969 1040.9219,674.2969 1040.7344,674.3906 C1040.3125,674.6563 1039.625,674.7813 1038.8594,674.7813 C1036.8125,674.7813 1035.5156,673.6875 1035.5156,671.9844 L1035.5156,670.8906 C1035.5156,669.1094 1036.7656,667.7969 1038.5,667.7969 C1039.0781,667.7969 1039.6875,667.9531 1040.1563,668.2031 C1040.6406,668.4844 1040.8125,668.7031 1040.9063,669.1094 C1040.9688,669.5156 1041,669.6406 1041.1406,669.7656 C1041.2813,669.9063 1041.5156,670.0156 1041.7344,670.0156 C1042,670.0156 1042.2656,669.875 1042.4375,669.6563 C1042.5469,669.5 1042.5781,669.3125 1042.5781,668.8906 L1042.5781,667.4688 C1042.5781,667.0313 1042.5625,666.9063 1042.4688,666.75 C1042.3125,666.4844 1042.0313,666.3438 1041.7344,666.3438 C1041.4375,666.3438 1041.2344,666.4375 1041.0156,666.75 L1040.8438,666.6719 Z " fill="#000000"/><text fill="#000000" font-family="sans-serif" font-size="12" lengthAdjust="spacingAndGlyphs" textLength="21" x="1052.5" y="675.1543">Run</text><line style="stroke:#000000;stroke-width:1.5;" x1="1024.5" x2="1075.5" y1="687" y2="687"/><line style="stroke:#000000;stroke-width:1.5;" x1="1024.5" x2="1075.5" y1="695" y2="695"/><!--MD5=[a2a32eb8740a34a1508bfb05a6833e01]
class Incident--><rect fill="#FFFFFF" filter="url(#f1whn0k1jatevo)" height="48" id="Incident" style="stroke:#000000;stroke-width:1.5;" width="79" x="909.5" y="655"/><ellipse cx="924.5" cy="671" fill="#ADD1B2" rx="11" ry="11" style="stroke:#000000;stroke-width:1.0;"/><path d="M926.8438,666.6719 C925.9063,666.2344 925.3125,666.0938 924.4375,666.0938 C921.8125,666.0938 919.8125,668.1719 919.8125,670.8906 L919.8125,672.0156 C919.8125,674.5938 921.9219,676.4844 924.8125,676.4844 C926.0313,676.4844 927.1875,676.1875 927.9375,675.6406 C928.5156,675.2344 928.8438,674.7813 928.8438,674.3906 C928.8438,673.9375 928.4531,673.5469 927.9844,673.5469 C927.7656,673.5469 927.5625,673.625 927.375,673.8125 C926.9219,674.2969 926.9219,674.2969 926.7344,674.3906 C926.3125,674.6563 925.625,674.7813 924.8594,674.7813 C922.8125,674.7813 921.5156,673.6875 921.5156,671.9844 L921.5156,670.8906 C921.5156,669.1094 922.7656,667.7969 924.5,667.7969 C925.0781,667.7969 925.6875,667.9531 926.1563,668.2031 C926.6406,668.4844 926.8125,668.7031 926.9063,669.1094 C926.9688,669.5156 927,669.6406 927.1406,669.7656 C927.2813,669.9063 927.5156,670.0156 927.7344,670.0156 C928,670.0156 928.2656,669.875 928.4375,669.6563 C928.5469,669.5 928.5781,669.3125 928.5781,668.8906 L928.5781,667.4688 C928.5781,667.0313 928.5625,666.9063 928.4688,666.75 C928.3125,666.4844 928.0313,666.3438 927.7344,666.3438 C927.4375,666.3438 927.2344,666.4375 927.0156,666.75 L926.8438,666.6719 Z " fill="#000000"/><text fill="#000000" font-family="sans-serif" font-size="12" lengthAdjust="spacingAndGlyphs" textLength="47" x="938.5" y="675.1543">Incident</text><line style="stroke:#000000;stroke-width:1.5;" x1="910.5" x2="987.5" y1="687" y2="687"/><line style="stroke:#000000;stroke-width:1.5;" x1="910.5" x2="987.5" y1="695" y2="695"/><!--MD5=[572ed6b619d9df2e4892c2de18186e7d]
class Experience--><rect fill="#FFFFFF" filter="url(#f1whn0k1jatevo)" height="48" id="Experience" style="stroke:#000000;stroke-width:1.5;" width="100" x="632" y="655"/><ellipse cx="647" cy="671" fill="#ADD1B2" rx="11" ry="11" style="stroke:#000000;stroke-width:1.0;"/><path d="M649.3438,666.6719 C648.4063,666.2344 647.8125,666.0938 646.9375,666.0938 C644.3125,666.0938 642.3125,668.1719 642.3125,670.8906 L642.3125,672.0156 C642.3125,674.5938 644.4219,676.4844 647.3125,676.4844 C648.5313,676.4844 649.6875,676.1875 650.4375,675.6406 C651.0156,675.2344 651.3438,674.7813 651.3438,674.3906 C651.3438,673.9375 650.9531,673.5469 650.4844,673.5469 C650.2656,673.5469 650.0625,673.625 649.875,673.8125 C649.4219,674.2969 649.4219,674.2969 649.2344,674.3906 C648.8125,674.6563 648.125,674.7813 647.3594,674.7813 C645.3125,674.7813 644.0156,673.6875 644.0156,671.9844 L644.0156,670.8906 C644.0156,669.1094 645.2656,667.7969 647,667.7969 C647.5781,667.7969 648.1875,667.9531 648.6563,668.2031 C649.1406,668.4844 649.3125,668.7031 649.4063,669.1094 C649.4688,669.5156 649.5,669.6406 649.6406,669.7656 C649.7813,669.9063 650.0156,670.0156 650.2344,670.0156 C650.5,670.0156 650.7656,669.875 650.9375,669.6563 C651.0469,669.5 651.0781,669.3125 651.0781,668.8906 L651.0781,667.4688 C651.0781,667.0313 651.0625,666.9063 650.9688,666.75 C650.8125,666.4844 650.5313,666.3438 650.2344,666.3438 C649.9375,666.3438 649.7344,666.4375 649.5156,666.75 L649.3438,666.6719 Z " fill="#000000"/><text fill="#000000" font-family="sans-serif" font-size="12" lengthAdjust="spacingAndGlyphs" textLength="68" x="661" y="675.1543">Experience</text><line style="stroke:#000000;stroke-width:1.5;" x1="633" x2="731" y1="687" y2="687"/><line style="stroke:#000000;stroke-width:1.5;" x1="633" x2="731" y1="695" y2="695"/><!--MD5=[d43d9d803963864579063901839a9251]
class ActivityCode--><rect fill="#FFFFFF" filter="url(#f1whn0k1jatevo)" height="48" id="ActivityCode" style="stroke:#000000;stroke-width:1.5;" width="107" x="767.5" y="655"/><ellipse cx="782.5" cy="671" fill="#ADD1B2" rx="11" ry="11" style="stroke:#000000;stroke-width:1.0;"/><path d="M784.8438,666.6719 C783.9063,666.2344 783.3125,666.0938 782.4375,666.0938 C779.8125,666.0938 777.8125,668.1719 777.8125,670.8906 L777.8125,672.0156 C777.8125,674.5938 779.9219,676.4844 782.8125,676.4844 C784.0313,676.4844 785.1875,676.1875 785.9375,675.6406 C786.5156,675.2344 786.8438,674.7813 786.8438,674.3906 C786.8438,673.9375 786.4531,673.5469 785.9844,673.5469 C785.7656,673.5469 785.5625,673.625 785.375,673.8125 C784.9219,674.2969 784.9219,674.2969 784.7344,674.3906 C784.3125,674.6563 783.625,674.7813 782.8594,674.7813 C780.8125,674.7813 779.5156,673.6875 779.5156,671.9844 L779.5156,670.8906 C779.5156,669.1094 780.7656,667.7969 782.5,667.7969 C783.0781,667.7969 783.6875,667.9531 784.1563,668.2031 C784.6406,668.4844 784.8125,668.7031 784.9063,669.1094 C784.9688,669.5156 785,669.6406 785.1406,669.7656 C785.2813,669.9063 785.5156,670.0156 785.7344,670.0156 C786,670.0156 786.2656,669.875 786.4375,669.6563 C786.5469,669.5 786.5781,669.3125 786.5781,668.8906 L786.5781,667.4688 C786.5781,667.0313 786.5625,666.9063 786.4688,666.75 C786.3125,666.4844 786.0313,666.3438 785.7344,666.3438 C785.4375,666.3438 785.2344,666.4375 785.0156,666.75 L784.8438,666.6719 Z " fill="#000000"/><text fill="#000000" font-family="sans-serif" font-size="12" lengthAdjust="spacingAndGlyphs" textLength="75" x="796.5" y="675.1543">ActivityCode</text><line style="stroke:#000000;stroke-width:1.5;" x1="768.5" x2="873.5" y1="687" y2="687"/><line style="stroke:#000000;stroke-width:1.5;" x1="768.5" x2="873.5" y1="695" y2="695"/><!--MD5=[ba2a9c5e2a307b8d08b73ec44d498b94]
class RiskMeasure--><rect fill="#FFFFFF" filter="url(#f1whn0k1jatevo)" height="48" id="RiskMeasure" style="stroke:#000000;stroke-width:1.5;" width="108" x="489" y="655"/><ellipse cx="504" cy="671" fill="#ADD1B2" rx="11" ry="11" style="stroke:#000000;stroke-width:1.0;"/><path d="M506.3438,666.6719 C505.4063,666.2344 504.8125,666.0938 503.9375,666.0938 C501.3125,666.0938 499.3125,668.1719 499.3125,670.8906 L499.3125,672.0156 C499.3125,674.5938 501.4219,676.4844 504.3125,676.4844 C505.5313,676.4844 506.6875,676.1875 507.4375,675.6406 C508.0156,675.2344 508.3438,674.7813 508.3438,674.3906 C508.3438,673.9375 507.9531,673.5469 507.4844,673.5469 C507.2656,673.5469 507.0625,673.625 506.875,673.8125 C506.4219,674.2969 506.4219,674.2969 506.2344,674.3906 C505.8125,674.6563 505.125,674.7813 504.3594,674.7813 C502.3125,674.7813 501.0156,673.6875 501.0156,671.9844 L501.0156,670.8906 C501.0156,669.1094 502.2656,667.7969 504,667.7969 C504.5781,667.7969 505.1875,667.9531 505.6563,668.2031 C506.1406,668.4844 506.3125,668.7031 506.4063,669.1094 C506.4688,669.5156 506.5,669.6406 506.6406,669.7656 C506.7813,669.9063 507.0156,670.0156 507.2344,670.0156 C507.5,670.0156 507.7656,669.875 507.9375,669.6563 C508.0469,669.5 508.0781,669.3125 508.0781,668.8906 L508.0781,667.4688 C508.0781,667.0313 508.0625,666.9063 507.9688,666.75 C507.8125,666.4844 507.5313,666.3438 507.2344,666.3438 C506.9375,666.3438 506.7344,666.4375 506.5156,666.75 L506.3438,666.6719 Z " fill="#000000"/><text fill="#000000" font-family="sans-serif" font-size="12" lengthAdjust="spacingAndGlyphs" textLength="76" x="518" y="675.1543">RiskMeasure</text><line style="stroke:#000000;stroke-width:1.5;" x1="490" x2="596" y1="687" y2="687"/><line style="stroke:#000000;stroke-width:1.5;" x1="490" x2="596" y1="695" y2="695"/><!--MD5=[06ff98eeb72c2b6ef2c26570f804ae27]
class ExternalDesign--><rect fill="#FFFFFF" filter="url(#f1whn0k1jatevo)" height="48" id="ExternalDesign" style="stroke:#000000;stroke-width:1.5;" width="122" x="141" y="223"/><ellipse cx="156" cy="239" fill="#ADD1B2" rx="11" ry="11" style="stroke:#000000;stroke-width:1.0;"/><path d="M158.3438,234.6719 C157.4063,234.2344 156.8125,234.0938 155.9375,234.0938 C153.3125,234.0938 151.3125,236.1719 151.3125,238.8906 L151.3125,240.0156 C151.3125,242.5938 153.4219,244.4844 156.3125,244.4844 C157.5313,244.4844 158.6875,244.1875 159.4375,243.6406 C160.0156,243.2344 160.3438,242.7813 160.3438,242.3906 C160.3438,241.9375 159.9531,241.5469 159.4844,241.5469 C159.2656,241.5469 159.0625,241.625 158.875,241.8125 C158.4219,242.2969 158.4219,242.2969 158.2344,242.3906 C157.8125,242.6563 157.125,242.7813 156.3594,242.7813 C154.3125,242.7813 153.0156,241.6875 153.0156,239.9844 L153.0156,238.8906 C153.0156,237.1094 154.2656,235.7969 156,235.7969 C156.5781,235.7969 157.1875,235.9531 157.6563,236.2031 C158.1406,236.4844 158.3125,236.7031 158.4063,237.1094 C158.4688,237.5156 158.5,237.6406 158.6406,237.7656 C158.7813,237.9063 159.0156,238.0156 159.2344,238.0156 C159.5,238.0156 159.7656,237.875 159.9375,237.6563 C160.0469,237.5 160.0781,237.3125 160.0781,236.8906 L160.0781,235.4688 C160.0781,235.0313 160.0625,234.9063 159.9688,234.75 C159.8125,234.4844 159.5313,234.3438 159.2344,234.3438 C158.9375,234.3438 158.7344,234.4375 158.5156,234.75 L158.3438,234.6719 Z " fill="#000000"/><text fill="#000000" font-family="sans-serif" font-size="12" lengthAdjust="spacingAndGlyphs" textLength="90" x="170" y="243.1543">ExternalDesign</text><line style="stroke:#000000;stroke-width:1.5;" x1="142" x2="262" y1="255" y2="255"/><line style="stroke:#000000;stroke-width:1.5;" x1="142" x2="262" y1="263" y2="263"/><!--MD5=[29c01941fdaefe3c5ff6be2dbf0cc1b1]
class DWP--><rect fill="#FFFFFF" filter="url(#f1whn0k1jatevo)" height="48" id="DWP" style="stroke:#000000;stroke-width:1.5;" width="59" x="120.5" y="331"/><ellipse cx="135.5" cy="347" fill="#ADD1B2" rx="11" ry="11" style="stroke:#000000;stroke-width:1.0;"/><path d="M137.8438,342.6719 C136.9063,342.2344 136.3125,342.0938 135.4375,342.0938 C132.8125,342.0938 130.8125,344.1719 130.8125,346.8906 L130.8125,348.0156 C130.8125,350.5938 132.9219,352.4844 135.8125,352.4844 C137.0313,352.4844 138.1875,352.1875 138.9375,351.6406 C139.5156,351.2344 139.8438,350.7813 139.8438,350.3906 C139.8438,349.9375 139.4531,349.5469 138.9844,349.5469 C138.7656,349.5469 138.5625,349.625 138.375,349.8125 C137.9219,350.2969 137.9219,350.2969 137.7344,350.3906 C137.3125,350.6563 136.625,350.7813 135.8594,350.7813 C133.8125,350.7813 132.5156,349.6875 132.5156,347.9844 L132.5156,346.8906 C132.5156,345.1094 133.7656,343.7969 135.5,343.7969 C136.0781,343.7969 136.6875,343.9531 137.1563,344.2031 C137.6406,344.4844 137.8125,344.7031 137.9063,345.1094 C137.9688,345.5156 138,345.6406 138.1406,345.7656 C138.2813,345.9063 138.5156,346.0156 138.7344,346.0156 C139,346.0156 139.2656,345.875 139.4375,345.6563 C139.5469,345.5 139.5781,345.3125 139.5781,344.8906 L139.5781,343.4688 C139.5781,343.0313 139.5625,342.9063 139.4688,342.75 C139.3125,342.4844 139.0313,342.3438 138.7344,342.3438 C138.4375,342.3438 138.2344,342.4375 138.0156,342.75 L137.8438,342.6719 Z " fill="#000000"/><text fill="#000000" font-family="sans-serif" font-size="12" lengthAdjust="spacingAndGlyphs" textLength="27" x="149.5" y="351.1543">DWP</text><line style="stroke:#000000;stroke-width:1.5;" x1="121.5" x2="178.5" y1="363" y2="363"/><line style="stroke:#000000;stroke-width:1.5;" x1="121.5" x2="178.5" y1="371" y2="371"/><!--MD5=[bdf71fdae44d543a033da137c3982596]
class Oliasoft--><rect fill="#FFFFFF" filter="url(#f1whn0k1jatevo)" height="48" id="Oliasoft" style="stroke:#000000;stroke-width:1.5;" width="78" x="215" y="331"/><ellipse cx="230" cy="347" fill="#ADD1B2" rx="11" ry="11" style="stroke:#000000;stroke-width:1.0;"/><path d="M232.3438,342.6719 C231.4063,342.2344 230.8125,342.0938 229.9375,342.0938 C227.3125,342.0938 225.3125,344.1719 225.3125,346.8906 L225.3125,348.0156 C225.3125,350.5938 227.4219,352.4844 230.3125,352.4844 C231.5313,352.4844 232.6875,352.1875 233.4375,351.6406 C234.0156,351.2344 234.3438,350.7813 234.3438,350.3906 C234.3438,349.9375 233.9531,349.5469 233.4844,349.5469 C233.2656,349.5469 233.0625,349.625 232.875,349.8125 C232.4219,350.2969 232.4219,350.2969 232.2344,350.3906 C231.8125,350.6563 231.125,350.7813 230.3594,350.7813 C228.3125,350.7813 227.0156,349.6875 227.0156,347.9844 L227.0156,346.8906 C227.0156,345.1094 228.2656,343.7969 230,343.7969 C230.5781,343.7969 231.1875,343.9531 231.6563,344.2031 C232.1406,344.4844 232.3125,344.7031 232.4063,345.1094 C232.4688,345.5156 232.5,345.6406 232.6406,345.7656 C232.7813,345.9063 233.0156,346.0156 233.2344,346.0156 C233.5,346.0156 233.7656,345.875 233.9375,345.6563 C234.0469,345.5 234.0781,345.3125 234.0781,344.8906 L234.0781,343.4688 C234.0781,343.0313 234.0625,342.9063 233.9688,342.75 C233.8125,342.4844 233.5313,342.3438 233.2344,342.3438 C232.9375,342.3438 232.7344,342.4375 232.5156,342.75 L232.3438,342.6719 Z " fill="#000000"/><text fill="#000000" font-family="sans-serif" font-size="12" lengthAdjust="spacingAndGlyphs" textLength="46" x="244" y="351.1543">Oliasoft</text><line style="stroke:#000000;stroke-width:1.5;" x1="216" x2="292" y1="363" y2="363"/><line style="stroke:#000000;stroke-width:1.5;" x1="216" x2="292" y1="371" y2="371"/><!--MD5=[d4e75f1caeb34a1ec273b500773b56ef]
class DrillPlan--><rect fill="#FFFFFF" filter="url(#f1whn0k1jatevo)" height="48" id="DrillPlan" style="stroke:#000000;stroke-width:1.5;" width="78" x="7" y="331"/><ellipse cx="22" cy="347" fill="#ADD1B2" rx="11" ry="11" style="stroke:#000000;stroke-width:1.0;"/><path d="M24.3438,342.6719 C23.4063,342.2344 22.8125,342.0938 21.9375,342.0938 C19.3125,342.0938 17.3125,344.1719 17.3125,346.8906 L17.3125,348.0156 C17.3125,350.5938 19.4219,352.4844 22.3125,352.4844 C23.5313,352.4844 24.6875,352.1875 25.4375,351.6406 C26.0156,351.2344 26.3438,350.7813 26.3438,350.3906 C26.3438,349.9375 25.9531,349.5469 25.4844,349.5469 C25.2656,349.5469 25.0625,349.625 24.875,349.8125 C24.4219,350.2969 24.4219,350.2969 24.2344,350.3906 C23.8125,350.6563 23.125,350.7813 22.3594,350.7813 C20.3125,350.7813 19.0156,349.6875 19.0156,347.9844 L19.0156,346.8906 C19.0156,345.1094 20.2656,343.7969 22,343.7969 C22.5781,343.7969 23.1875,343.9531 23.6563,344.2031 C24.1406,344.4844 24.3125,344.7031 24.4063,345.1094 C24.4688,345.5156 24.5,345.6406 24.6406,345.7656 C24.7813,345.9063 25.0156,346.0156 25.2344,346.0156 C25.5,346.0156 25.7656,345.875 25.9375,345.6563 C26.0469,345.5 26.0781,345.3125 26.0781,344.8906 L26.0781,343.4688 C26.0781,343.0313 26.0625,342.9063 25.9688,342.75 C25.8125,342.4844 25.5313,342.3438 25.2344,342.3438 C24.9375,342.3438 24.7344,342.4375 24.5156,342.75 L24.3438,342.6719 Z " fill="#000000"/><text fill="#000000" font-family="sans-serif" font-size="12" lengthAdjust="spacingAndGlyphs" textLength="46" x="36" y="351.1543">DrillPlan</text><line style="stroke:#000000;stroke-width:1.5;" x1="8" x2="84" y1="363" y2="363"/><line style="stroke:#000000;stroke-width:1.5;" x1="8" x2="84" y1="371" y2="371"/><!--MD5=[a6b9cae29f52eb68ad43a1737756c55b]
link Field to Well--><path codeLine="6" d="M818,55 C818,72.658 818,96.941 818,114.678 " fill="none" id="Field-Well" style="stroke:#000000;stroke-width:1.0;"/><text fill="#000000" font-family="sans-serif" font-size="13" lengthAdjust="spacingAndGlyphs" textLength="8" x="808.975" y="75.1558">1</text><text fill="#000000" font-family="sans-serif" font-size="13" lengthAdjust="spacingAndGlyphs" textLength="8" x="809.025" y="104.0045">n</text><!--MD5=[c07030c267f1aef5100aaab0d703a554]
link Well to Wellbore--><path codeLine="7" d="M824.944,163 C830.274,180.658 837.605,204.941 842.96,222.678 " fill="none" id="Well-Wellbore" style="stroke:#000000;stroke-width:1.0;"/><text fill="#000000" font-family="sans-serif" font-size="13" lengthAdjust="spacingAndGlyphs" textLength="8" x="817.6984" y="183.1558">1</text><text fill="#000000" font-family="sans-serif" font-size="13" lengthAdjust="spacingAndGlyphs" textLength="8" x="832.269" y="212.0045">n</text><!--MD5=[02414980711d2e7d935c9b93da09bdd5]
link Project to ProjectPhase--><path codeLine="8" d="M668,55 C668,72.658 668,96.941 668,114.678 " fill="none" id="Project-ProjectPhase" style="stroke:#000000;stroke-width:1.0;"/><text fill="#000000" font-family="sans-serif" font-size="13" lengthAdjust="spacingAndGlyphs" textLength="8" x="658.975" y="75.1558">1</text><text fill="#000000" font-family="sans-serif" font-size="13" lengthAdjust="spacingAndGlyphs" textLength="8" x="659.025" y="104.0045">n</text><!--MD5=[6f42f91c77dbf34ead2d2a4eb9845a03]
link ProjectPhase to Well--><path codeLine="9" d="M722.199,139 C744.403,139 766.607,139 788.811,139 " fill="none" id="ProjectPhase-Well" style="stroke:#000000;stroke-width:1.0;"/><text fill="#000000" font-family="sans-serif" font-size="13" lengthAdjust="spacingAndGlyphs" textLength="8" x="730.0195" y="135.068">n</text><text fill="#000000" font-family="sans-serif" font-size="13" lengthAdjust="spacingAndGlyphs" textLength="8" x="773.136" y="134.3479">n</text><!--MD5=[1b851d146dba0b60909701775ef97928]
link ProjectPhase to Section--><path codeLine="10" d="M672.235,163.346 C677.532,190.046 687.793,234.747 703,271 C711.933,292.294 725.474,314.75 736.059,330.926 " fill="none" id="ProjectPhase-Section" style="stroke:#000000;stroke-width:1.0;"/><text fill="#000000" font-family="sans-serif" font-size="13" lengthAdjust="spacingAndGlyphs" textLength="8" x="664.2923" y="183.1915">1</text><text fill="#000000" font-family="sans-serif" font-size="13" lengthAdjust="spacingAndGlyphs" textLength="8" x="722.9491" y="319.9191">n</text><!--MD5=[788b3ac5d3022061c14c024d0e2da73d]
link ProjectPhase to WellDesign--><path codeLine="11" d="M633.933,163 C607.689,180.719 571.566,205.108 545.271,222.862 " fill="none" id="ProjectPhase-WellDesign" style="stroke:#000000;stroke-width:1.0;"/><text fill="#000000" font-family="sans-serif" font-size="13" lengthAdjust="spacingAndGlyphs" textLength="8" x="616.1783" y="183.1558">1</text><text fill="#000000" font-family="sans-serif" font-size="13" lengthAdjust="spacingAndGlyphs" textLength="8" x="545.0279" y="211.8387">n</text><!--MD5=[ba08d31a552d1c366b5bfcd229b94e95]
link WellDesign to WellHoleSize--><path codeLine="12" d="M483.443,271 C462.287,288.658 433.194,312.941 411.942,330.678 " fill="none" id="WellDesign-WellHoleSize" style="stroke:#000000;stroke-width:1.0;"/><text fill="#000000" font-family="sans-serif" font-size="13" lengthAdjust="spacingAndGlyphs" textLength="8" x="467.3565" y="291.1558">1</text><text fill="#000000" font-family="sans-serif" font-size="13" lengthAdjust="spacingAndGlyphs" textLength="8" x="409.7779" y="320.0045">n</text><!--MD5=[97e8cb1c51248834eca51af8d84047f7]
link WellDesign to Casing--><path codeLine="13" d="M511,271 C511,288.658 511,312.941 511,330.678 " fill="none" id="WellDesign-Casing" style="stroke:#000000;stroke-width:1.0;"/><text fill="#000000" font-family="sans-serif" font-size="13" lengthAdjust="spacingAndGlyphs" textLength="8" x="501.975" y="291.1558">1</text><text fill="#000000" font-family="sans-serif" font-size="13" lengthAdjust="spacingAndGlyphs" textLength="8" x="502.025" y="320.0045">n</text><!--MD5=[e1035906a766b028bd993933171185f9]
link WellDesign to Cementing--><path codeLine="14" d="M536.821,271 C556.645,288.658 583.905,312.941 603.818,330.678 " fill="none" id="WellDesign-Cementing" style="stroke:#000000;stroke-width:1.0;"/><text fill="#000000" font-family="sans-serif" font-size="13" lengthAdjust="spacingAndGlyphs" textLength="8" x="534.4126" y="291.1558">1</text><text fill="#000000" font-family="sans-serif" font-size="13" lengthAdjust="spacingAndGlyphs" textLength="8" x="588.4611" y="320.0045">n</text><!--MD5=[0834e2d67444518d1a609b04399609b1]
link Section to Task--><path codeLine="15" d="M773.265,379 C789.59,396.658 812.04,420.941 828.439,438.678 " fill="none" id="Section-Task" style="stroke:#000000;stroke-width:1.0;"/><text fill="#000000" font-family="sans-serif" font-size="13" lengthAdjust="spacingAndGlyphs" textLength="8" x="769.6892" y="399.1558">1</text><text fill="#000000" font-family="sans-serif" font-size="13" lengthAdjust="spacingAndGlyphs" textLength="8" x="814.2085" y="428.0045">n</text><!--MD5=[7e6a5d4d23393e6023f2a2c10f7402b6]
link Rig to Section--><path codeLine="16" d="M747.302,271 C748.301,288.658 749.676,312.941 750.68,330.678 " fill="none" id="Rig-Section" style="stroke:#000000;stroke-width:1.0;"/><text fill="#000000" font-family="sans-serif" font-size="13" lengthAdjust="spacingAndGlyphs" textLength="8" x="738.6106" y="291.1558">1</text><text fill="#000000" font-family="sans-serif" font-size="13" lengthAdjust="spacingAndGlyphs" textLength="8" x="741.3833" y="320.0045">1</text><!--MD5=[8b1fc5f06b102baef2cee6de0b901b9b]
link Section to Risk--><path codeLine="17" d="M751.129,379.309 C749.59,420.474 746.408,505.575 744.87,546.72 " fill="none" id="Section-Risk" style="stroke:#000000;stroke-width:1.0;"/><text fill="#000000" font-family="sans-serif" font-size="13" lengthAdjust="spacingAndGlyphs" textLength="8" x="741.9417" y="399.1455">1</text><text fill="#000000" font-family="sans-serif" font-size="13" lengthAdjust="spacingAndGlyphs" textLength="8" x="736.1071" y="536.0567">n</text><!--MD5=[17dae33cf43de8118a8d0f042fb99559]
link Task to Operation--><path codeLine="18" d="M850.651,487 C851.151,504.658 851.838,528.941 852.34,546.678 " fill="none" id="Task-Operation" style="stroke:#000000;stroke-width:1.0;"/><text fill="#000000" font-family="sans-serif" font-size="13" lengthAdjust="spacingAndGlyphs" textLength="8" x="841.7928" y="507.1558">1</text><text fill="#000000" font-family="sans-serif" font-size="13" lengthAdjust="spacingAndGlyphs" textLength="8" x="843.2041" y="536.0045">n</text><!--MD5=[ebcb16a42e9c26041e6873336bc4e317]
link Task to Risk--><path codeLine="19" d="M827,487 C809.342,504.658 785.059,528.941 767.322,546.678 " fill="none" id="Task-Risk" style="stroke:#000000;stroke-width:1.0;"/><text fill="#000000" font-family="sans-serif" font-size="13" lengthAdjust="spacingAndGlyphs" textLength="8" x="812.0813" y="507.1558">1</text><text fill="#000000" font-family="sans-serif" font-size="13" lengthAdjust="spacingAndGlyphs" textLength="8" x="764.0317" y="536.0045">n</text><!--MD5=[a925b2533c1b73154de89ed713ac5368]
link Wellbore to Section--><path codeLine="20" d="M828.735,271 C812.41,288.658 789.96,312.941 773.561,330.678 " fill="none" id="Wellbore-Section" style="stroke:#000000;stroke-width:1.0;"/><text fill="#000000" font-family="sans-serif" font-size="13" lengthAdjust="spacingAndGlyphs" textLength="8" x="814.2608" y="291.1558">1</text><text fill="#000000" font-family="sans-serif" font-size="13" lengthAdjust="spacingAndGlyphs" textLength="8" x="769.8415" y="320.0045">n</text><!--MD5=[d262b216b4d3a86b2ab9e236a1345388]
link Wellbore to Task--><path codeLine="21" d="M850,271.309 C850,312.474 850,397.575 850,438.72 " fill="none" id="Wellbore-Task" style="stroke:#000000;stroke-width:1.0;"/><text fill="#000000" font-family="sans-serif" font-size="13" lengthAdjust="spacingAndGlyphs" textLength="8" x="841.025" y="291.1455">1</text><text fill="#000000" font-family="sans-serif" font-size="13" lengthAdjust="spacingAndGlyphs" textLength="8" x="841.025" y="428.0567">n</text><!--MD5=[83b155490a3b2c2970578ec7563ca46a]
link Task to Run--><path codeLine="22" d="M871.784,487.309 C910.256,528.474 989.79,613.5753 1028.24,654.7196 " fill="none" id="Task-Run" style="stroke:#000000;stroke-width:1.0;"/><text fill="#000000" font-family="sans-serif" font-size="13" lengthAdjust="spacingAndGlyphs" textLength="8" x="868.1189" y="507.1455">1</text><text fill="#000000" font-family="sans-serif" font-size="13" lengthAdjust="spacingAndGlyphs" textLength="8" x="1013.961" y="644.0562">n</text><!--MD5=[0d61424d009b9e51179dd6e28ee9978f]
link Operation to Run--><path codeLine="23" d="M895.746,595 C934.561,615.8855 990.598,646.0377 1023.36,663.6673 " fill="none" id="Operation-Run" style="stroke:#000000;stroke-width:1.0;"/><text fill="#000000" font-family="sans-serif" font-size="13" lengthAdjust="spacingAndGlyphs" textLength="8" x="897.6747" y="615.1558">1</text><text fill="#000000" font-family="sans-serif" font-size="13" lengthAdjust="spacingAndGlyphs" textLength="8" x="1007.5085" y="673.7441">n</text><!--MD5=[fa3dad59f2bac1f52d0f6fb5577fb10f]
link Operation to Incident--><path codeLine="24" d="M873.831,595 C889.823,612.6584 911.814,636.9408 927.879,654.6784 " fill="none" id="Operation-Incident" style="stroke:#000000;stroke-width:1.0;"/><text fill="#000000" font-family="sans-serif" font-size="13" lengthAdjust="spacingAndGlyphs" textLength="8" x="870.1439" y="615.1558">1</text><text fill="#000000" font-family="sans-serif" font-size="13" lengthAdjust="spacingAndGlyphs" textLength="8" x="913.7558" y="644.005">n</text><!--MD5=[19bff70e603d136d859dd155a6de70b7]
link Operation to Experience--><path codeLine="25" d="M815.896,595 C787.311,612.7193 747.967,637.1083 719.327,654.8617 " fill="none" id="Operation-Experience" style="stroke:#000000;stroke-width:1.0;"/><text fill="#000000" font-family="sans-serif" font-size="13" lengthAdjust="spacingAndGlyphs" textLength="8" x="797.3631" y="615.1558">1</text><text fill="#000000" font-family="sans-serif" font-size="13" lengthAdjust="spacingAndGlyphs" textLength="8" x="719.867" y="643.8383">n</text><!--MD5=[28a5ed3711d2caf37ebd52cdc6a4bd40]
link Operation to ActivityCode--><path codeLine="26" d="M846.056,595 C840.726,612.6584 833.395,636.9408 828.04,654.6784 " fill="none" id="Operation-ActivityCode" style="stroke:#000000;stroke-width:1.0;"/><text fill="#000000" font-family="sans-serif" font-size="13" lengthAdjust="spacingAndGlyphs" textLength="8" x="835.2516" y="615.1558">1</text><text fill="#000000" font-family="sans-serif" font-size="13" lengthAdjust="spacingAndGlyphs" textLength="8" x="820.781" y="644.005">1</text><!--MD5=[6581ef7cb6c90960618869639649ec08]
link Risk to RiskMeasure--><path codeLine="27" d="M715.628,586.962 C682.081,604.6536 625.874,634.2955 586.744,654.9312 " fill="none" id="Risk-RiskMeasure" style="stroke:#000000;stroke-width:1.0;"/><text fill="#000000" font-family="sans-serif" font-size="13" lengthAdjust="spacingAndGlyphs" textLength="8" x="700.142" y="586.0011">1</text><text fill="#000000" font-family="sans-serif" font-size="13" lengthAdjust="spacingAndGlyphs" textLength="8" x="588.9284" y="643.9256">n</text><!--MD5=[81510b22600b24e86a29b6aa78bc20c7]
link ExternalDesign to WellDesign--><path codeLine="28" d="M263.257,247 C329.064,247 394.87,247 460.677,247 " fill="none" id="ExternalDesign-WellDesign" style="stroke:#000000;stroke-width:1.0;"/><text fill="#000000" font-family="sans-serif" font-size="13" lengthAdjust="spacingAndGlyphs" textLength="8" x="270.8023" y="243.2074">1</text><text fill="#000000" font-family="sans-serif" font-size="13" lengthAdjust="spacingAndGlyphs" textLength="8" x="445.0378" y="243.0215">n</text><!--MD5=[d175a474a6bb1dbab2074677f5eaed43]
reverse link ExternalDesign to DWP--><path codeLine="29" d="M181.841,289.094 C174.923,303.196 167.423,318.484 161.441,330.678 " fill="none" id="ExternalDesign-backto-DWP" style="stroke:#000000;stroke-width:1.0;"/><polygon fill="none" points="175.624,285.873,190.717,271,188.193,292.039,175.624,285.873" style="stroke:#000000;stroke-width:1.0;"/><!--MD5=[00d50c44a5cb2168223398f799a64ce1]
reverse link ExternalDesign to Oliasoft--><path codeLine="30" d="M222.159,289.094 C229.077,303.196 236.577,318.484 242.559,330.678 " fill="none" id="ExternalDesign-backto-Oliasoft" style="stroke:#000000;stroke-width:1.0;"/><polygon fill="none" points="215.807,292.039,213.283,271,228.376,285.873,215.807,292.039" style="stroke:#000000;stroke-width:1.0;"/><!--MD5=[11d7db844585c53bd9f4eaf51a1b5850]
reverse link ExternalDesign to DrillPlan--><path codeLine="31" d="M151.551,282.279 C128.16,298.173 100.9751,316.645 80.0526,330.862 " fill="none" id="ExternalDesign-backto-DrillPlan" style="stroke:#000000;stroke-width:1.0;"/><polygon fill="none" points="147.674,276.451,168.15,271,155.542,288.031,147.674,276.451" style="stroke:#000000;stroke-width:1.0;"/><!--MD5=[546edb3364742f751e1b55e7d2e72573]
@startuml
skinparam class {
BackgroundColor White
ArrowColor Black
BorderColor Black
}
Field "1" - - "n" Well
Well "1" - - "n" Wellbore
Project "1" - - "n" ProjectPhase
ProjectPhase "n" - "n" Well
ProjectPhase "1" - - "n" Section
ProjectPhase "1" - - "n" WellDesign
WellDesign "1" - - "n" WellHoleSize
WellDesign "1" - - "n" Casing
WellDesign "1" - - "n" Cementing
Section "1" - - "n" Task
Rig "1" - - "1" Section
Section "1" - - "n" Risk
Task "1" - - "n" Operation
Task "1" - - "n" Risk
Wellbore "1" - - "n" Section
Wellbore "1" - - "n" Task
Task "1" - - "n" Run
Operation "1" - - "n" Run
Operation "1" - - "n" Incident
Operation "1" - - "n" Experience
Operation "1" - - "1" ActivityCode
Risk "1" - - "n" RiskMeasure
ExternalDesign "1" - "n" WellDesign
ExternalDesign <|- - DWP
ExternalDesign <|- - Oliasoft
ExternalDesign <|- - DrillPlan
@enduml

PlantUML version 1.2020.23beta3(Unknown compile time)
(GPL source distribution)
Java Runtime: Java(TM) SE Runtime Environment
JVM: Java HotSpot(TM) 64-Bit Server VM
Default Encoding: UTF-8
Language: en
Country: US
--></g></svg>